<svg width="80" height="17" viewBox="0 0 80 17" fill="none" xmlns="http://www.w3.org/2000/svg">
<path d="M3.75697 0L9.12656 8.19793V0H13.3678V15.4672H9.61085L4.24125 7.24683V15.4672H0V0H3.75697Z" fill="white"/>
<path d="M32.0059 8.08809C32.0059 12.5515 28.1616 16.1537 23.6982 16.1537C19.2347 16.1537 15.3679 12.549 15.3679 8.08809C15.3679 3.62716 19.2347 0 23.6982 0C28.1616 0 32.0059 3.62466 32.0059 8.08809ZM27.9419 8.08809C27.9419 5.74654 26.0422 3.84684 23.7006 3.84684C21.3591 3.84684 19.4569 5.74404 19.4569 8.08809C19.4569 10.4296 21.3566 12.3094 23.6982 12.3094C26.0397 12.3094 27.9419 10.4296 27.9419 8.08809Z" fill="white"/>
<path d="M47.2888 3.57723H42.758V15.4647H38.5367V3.57723H34.0059V0H47.2863V3.57723H47.2888Z" fill="white"/>
<path d="M59.8508 12.7263H54.9455L53.9944 15.4672H49.2888L55.1227 0H59.6536L65.5099 15.4672H60.8044L59.8508 12.7263ZM58.5901 9.14653L57.3969 5.74404L56.2036 9.14653H58.5901Z" fill="white"/>
<path d="M79.9489 10.8715C79.9489 13.5675 78.1591 15.4672 74.0726 15.4672H67.5098V0H73.828C77.1655 0 78.9529 1.70249 78.9529 4.26372C78.9529 5.14742 78.5984 6.42803 77.5175 7.22436C79.3074 7.93082 79.9489 9.45608 79.9489 10.8715ZM71.7286 3.57723V5.69911H73.8504C74.8015 5.69911 75.2434 5.23479 75.2434 4.63817C75.2434 4.04155 74.8015 3.57723 73.8504 3.57723H71.7286ZM76.1495 10.5819C76.1495 9.85299 75.5529 9.27884 74.4695 9.27884H71.7286V11.885H74.4695C75.5529 11.8875 76.1495 11.2909 76.1495 10.5819Z" fill="white"/>
</svg>
